# xmcd
#
# Track frame offsets:
#	150
#	17325
#	42825
#	55500
#	75900
#	92475
#	107250
#	125625
#	139275
#	155775
#	173100
#	187350
#	205725
#	221925
#	240525
#	258225
#	276075
#	294450
#	312825
#
# Disc length: 4355 seconds
#
# Revision: 1
# Processed by: cddbd v1.5.1PL2 Copyright (c) Steve Scherf et al.
# Submitted via: audiograbber 1.83.01
#
DISCID=08110113
DTITLE=Various Artist - spc-25
DYEAR=1900
DGENRE=Karaoke
TTITLE0=Dixie Chicks - Landslide
TTITLE1=Dixie Chicks  - Travelin' Soldier
TTITLE2=LeAnn Rimes - Blue
TTITLE3=LeAnn Rimes - How Do I Live
TTITLE4=LeAnn Rimes - You Light Up My Life
TTITLE5=LeAnn Rimes - But I Do Love You
TTITLE6=Shania Twain - Man! I Feel Like A Woman
TTITLE7=Shania Twain - Up!
TTITLE8=Shania Twain - That Don't Impress Me Much
TTITLE9=Shania Twain - From This Moment
TTITLE10=Martina McBride - Valentine
TTITLE11=Faith Hill - Breath
TTITLE12=Jo Dee Messina - I Wish
TTITLE13=Deanna Carter - Strawberry Wine
TTITLE14=Womack, Lee Ann  - I Hope You Dance 
TTITLE15=Krauss, Alison  - When You Say Nothing At All 
TTITLE16=Juice Newton - Sweetest Thing, The 
TTITLE17=Juice Newton - Break It To Me Gently 
TTITLE18=Juisce Newton and Olivia Newton John - Hopelessly Devoted To You 
EXTD=
EXTT0=
EXTT1=
EXTT2=
EXTT3=
EXTT4=
EXTT5=
EXTT6=
EXTT7=
EXTT8=
EXTT9=
EXTT10=
EXTT11=
EXTT12=
EXTT13=
EXTT14=
EXTT15=
EXTT16=
EXTT17=
EXTT18=
PLAYORDER=
